<?xml version="1.0" encoding="UTF-8" standalone="no"?>
<svg width="56" height="56"
   xmlns:dc="http://purl.org/dc/elements/1.1/"
   xmlns:cc="http://creativecommons.org/ns#"
   xmlns:rdf="http://www.w3.org/1999/02/22-rdf-syntax-ns#"
   xmlns:svg="http://www.w3.org/2000/svg"
   xmlns="http://www.w3.org/2000/svg"
   xmlns:sodipodi="http://sodipodi.sourceforge.net/DTD/sodipodi-0.dtd"
   xmlns:inkscape="http://www.inkscape.org/namespaces/inkscape"
   viewBox="0 0 56 56"
   version="1.1"
   id="svg13"
   sodipodi:docname="logo_standard.svg"
   inkscape:version="0.92.3 (2405546, 2018-03-11)">
  <metadata
     id="metadata17">
    <rdf:RDF>
      <cc:Work
         rdf:about="">
        <dc:format>image/svg+xml</dc:format>
        <dc:type
           rdf:resource="http://purl.org/dc/dcmitype/StillImage" />
        <dc:title></dc:title>
      </cc:Work>
    </rdf:RDF>
  </metadata>
  <sodipodi:namedview
     pagecolor="#ffffff"
     bordercolor="#666666"
     borderopacity="1"
     objecttolerance="10"
     gridtolerance="10"
     guidetolerance="10"
     inkscape:pageopacity="0"
     inkscape:pageshadow="2"
     inkscape:window-width="2400"
     inkscape:window-height="1271"
     id="namedview15"
     showgrid="false"
     inkscape:zoom="4.2142857"
     inkscape:cx="28"
     inkscape:cy="28"
     inkscape:window-x="2391"
     inkscape:window-y="-9"
     inkscape:window-maximized="1"
     inkscape:current-layer="svg13" />
  <defs
     id="defs4">
    <style
       id="style2">
      .cls-1 {
        fill: #fc0;
      }

      .cls-2 {
        fill: #3b3f3a;
      }
    </style>
  </defs>
  <g
     id="Standard_Logo"
     data-name="Standard Logo"
     transform="translate(-40 -192)">
    <path
       id="Path_54"
       data-name="Path 54"
       class="cls-1"
       d="M0,0H56V56H0Z"
       transform="translate(40 192)" />
    <path
       id="Path_23"
       data-name="Path 23"
       class="cls-2"
       d="M23.79,139.8H15.724a.133.133,0,0,0-.124.124v2.194c0,.062.031.093.093.124.062,0,.093,0,.124-.062.124-.185.278-.34.34-.34h2.38v5.316c0,.062-.155.216-.34.34a.234.234,0,0,0-.062.124c0,.062.062.093.124.093h3a.133.133,0,0,0,.124-.124c0-.062-.031-.093-.093-.124-.124-.062-.34-.216-.34-.309V141.84h2.38c.093,0,.247.185.34.34a.123.123,0,0,0,.124.062c.062,0,.093-.062.093-.124v-2.194C23.913,139.862,23.852,139.8,23.79,139.8Z"
       transform="translate(29.221 95.405)" />
    <path
       id="Path_24"
       data-name="Path 24"
       class="cls-2"
       d="M52.343,140.62a4.838,4.838,0,0,0-1.483-.773,5.591,5.591,0,0,0-1.792-.247,6.786,6.786,0,0,0-1.792.247,4.838,4.838,0,0,0-1.483.773,3.7,3.7,0,0,0-1.02,1.267,4.224,4.224,0,0,0,0,3.461,3.7,3.7,0,0,0,1.02,1.267,4.187,4.187,0,0,0,1.483.742,6.61,6.61,0,0,0,1.792.247,6.785,6.785,0,0,0,1.792-.247,4.187,4.187,0,0,0,1.483-.742,3.7,3.7,0,0,0,1.02-1.267,4.224,4.224,0,0,0,0-3.461A3.7,3.7,0,0,0,52.343,140.62ZM49.1,145.626a2.666,2.666,0,0,1-.865-.124,1.781,1.781,0,0,1-.711-.4,1.627,1.627,0,0,1-.494-.618,1.882,1.882,0,0,1-.185-.865,1.974,1.974,0,0,1,.185-.865,1.627,1.627,0,0,1,.494-.618,2.02,2.02,0,0,1,.711-.4,3.09,3.09,0,0,1,1.731,0,1.781,1.781,0,0,1,.711.4,1.627,1.627,0,0,1,.494.618,1.882,1.882,0,0,1,.185.865,1.974,1.974,0,0,1-.185.865,1.627,1.627,0,0,1-.494.618,2.653,2.653,0,0,1-.711.4A2.792,2.792,0,0,1,49.1,145.626Z"
       transform="translate(9.322 95.543)" />
    <path
       id="Path_25"
       data-name="Path 25"
       class="cls-2"
       d="M86.423,147.4a2.072,2.072,0,0,1-.4-.4l-1.607-2.287a3.128,3.128,0,0,0,1.36-.8,2.667,2.667,0,0,0-.155-3.585,3.886,3.886,0,0,0-2.411-.618H77.924c-.062,0-.093.031-.124.093,0,.062,0,.124.062.124.124.062.34.216.34.34v6.768c0,.093-.185.247-.34.34a.123.123,0,0,0-.062.124c0,.062.062.093.124.093h3a.133.133,0,0,0,.124-.124.161.161,0,0,0-.062-.124c-.155-.093-.34-.247-.34-.309v-2.287h1.236c.031.062.093.124.155.216.093.124.216.278.34.464s.278.34.4.556c.124.185.278.371.371.525a2.488,2.488,0,0,1,.278.433c.062.093.093.124.093.155a.03.03,0,0,0,.031.031.1.1,0,0,1,.031.062c-.031.093-.155.155-.216.185a.123.123,0,0,0-.062.124c0,.062.062.093.124.093h2.936c.062,0,.093-.031.124-.093A.445.445,0,0,0,86.423,147.4Zm-5.81-5.779H82.93a1.089,1.089,0,0,1,.8.216.657.657,0,0,1,.216.464.556.556,0,0,1-.216.464,1.189,1.189,0,0,1-.8.216H80.612Z"
       transform="translate(-13.756 95.474)" />
    <path
       id="Path_26"
       data-name="Path 26"
       class="cls-2"
       d="M117.8,139.731h-7.881c-.062,0-.093.031-.124.093,0,.062.031.124.062.124,0,0,.34.124.34.309v6.768c0,.093-.185.247-.34.34a.123.123,0,0,0-.062.124c0,.062.062.093.124.093h3.06c.062,0,.093-.031.124-.093,0-.062,0-.124-.062-.124-.155-.062-.34-.216-.34-.34v-2.318H115.8c.093,0,.247.185.34.34a.123.123,0,0,0,.124.062c.062,0,.093-.062.093-.124v-2.441c0-.062-.031-.093-.093-.124s-.093,0-.124.062a.575.575,0,0,1-.34.278h-3.091v-1.051h4.667c.124,0,.278.185.34.278a.123.123,0,0,0,.124.062c.062,0,.093-.062.093-.124v-2.132a.114.114,0,0,0-.031-.093C117.866,139.762,117.835,139.731,117.8,139.731Z"
       transform="translate(-35.866 95.474)" />
    <path
       id="Path_27"
       data-name="Path 27"
       class="cls-2"
       d="M145.916,143.8a2.594,2.594,0,0,0-.711-.711,3.163,3.163,0,0,0-.989-.4c-.371-.093-.742-.155-1.113-.216s-.742-.093-1.113-.124c-.34-.031-.68-.062-.958-.093a1.623,1.623,0,0,1-.649-.185c-.185-.093-.185-.185-.185-.247,0-.124.093-.247.309-.371a2.916,2.916,0,0,1,1.267-.185c.34,0,.68.031,1.02.062a7.535,7.535,0,0,1,.958.185,2.105,2.105,0,0,1,.68.247,1.011,1.011,0,0,1,.433.4c.031.031.062.062.093.062s.093-.031.093-.062l.989-1.947c.031-.031,0-.093-.031-.124s-.093-.062-.124-.031a2.218,2.218,0,0,1-.525.155,1.55,1.55,0,0,1-.433-.093c-.216-.062-.494-.124-.834-.216a9.463,9.463,0,0,0-1.143-.216,9.846,9.846,0,0,0-1.391-.093,5.57,5.57,0,0,0-1.483.185,3.9,3.9,0,0,0-1.143.525,2.621,2.621,0,0,0-.742.8,2.055,2.055,0,0,0-.278,1.051,1.435,1.435,0,0,0,.494,1.174,3.449,3.449,0,0,0,1.143.649A7.589,7.589,0,0,0,141,144.3c.525.062.989.093,1.453.155a4.587,4.587,0,0,1,1.082.185c.247.062.34.155.34.247a.689.689,0,0,1-.433.618,3.7,3.7,0,0,1-1.545.247,6.127,6.127,0,0,1-1.082-.093,3.9,3.9,0,0,1-.958-.278,3.489,3.489,0,0,1-.68-.34,3.332,3.332,0,0,1-.494-.4c-.031-.031-.062-.031-.124-.031-.031,0-.062.031-.093.062l-.9,2.225c-.031.031,0,.093.031.124s.062.062.124.031a1.937,1.937,0,0,1,.34-.031,1.824,1.824,0,0,1,.433.062,2.13,2.13,0,0,0,.247.093,4.4,4.4,0,0,1,.494.155,8.427,8.427,0,0,0,1.143.216,11.7,11.7,0,0,0,1.576.093,7.534,7.534,0,0,0,2.009-.216,3.387,3.387,0,0,0,1.3-.618,2.186,2.186,0,0,0,.711-.9,2.706,2.706,0,0,0,.216-.989A1.977,1.977,0,0,0,145.916,143.8Z"
       transform="translate(-55.046 95.543)" />
  </g>
</svg>
